<svg viewBox="0 0 32 32" xmlns="http://www.w3.org/2000/svg"><g id="Burger"><path d="m26 23h-20a4.9993 4.9993 0 0 0 5 5h10a4.9993 4.9993 0 0 0 5-5z" fill="#f7a62b"/><path d="m16 28h5a4.9993 4.9993 0 0 0 5-5h-10" fill="#f37d1c"/><path d="m14 5h4a8 8 0 0 1 8 8 0 0 0 0 1 0 0h-20a0 0 0 0 1 0 0 8 8 0 0 1 8-8z" fill="#f7a62b"/><path d="m16 13h10a7.9993 7.9993 0 0 0 -8-8h-2z" fill="#f37d1c"/><g fill="#020202"><path d="m19.9932 17.78a8.2251 8.2251 0 0 1 -1.9278-.2281l-.623-.166a6.1646 6.1646 0 0 0 -2.9082.0059l-.5762.1543a8.3125 8.3125 0 0 1 -3.8926.0058l-.623-.166a6.1646 6.1646 0 0 0 -2.9082.0059l-1.2881.3271a1 1 0 0 1 -.4922-1.9384l1.3-.33a8.3142 8.3142 0 0 1 3.8809-.0029l.623.166a6.1646 6.1646 0 0 0 2.9082-.0059l.5762-.1543a8.3125 8.3125 0 0 1 3.8926-.0058l.623.166a6.1646 6.1646 0 0 0 2.9082-.0059l.5762-.1543a8.3125 8.3125 0 0 1 3.8926-.0058l1.3115.333a1 1 0 0 1 -.4922 1.9384l-1.3-.33a6.1745 6.1745 0 0 0 -2.92.0029l-.5762.1543a8.3814 8.3814 0 0 1 -1.9647.2338z"/><path d="m25 21h-18a1 1 0 0 1 0-2h18a1 1 0 0 1 0 2z"/><path d="m26 14h-20a1 1 0 0 1 -1-1 9.01 9.01 0 0 1 9-9h4a9.01 9.01 0 0 1 9 9 1 1 0 0 1 -1 1zm-18.9287-2h17.8574a7.0109 7.0109 0 0 0 -6.9287-6h-4a7.0109 7.0109 0 0 0 -6.9287 6z"/><path d="m21 29h-10a6.0066 6.0066 0 0 1 -6-6 1 1 0 0 1 1-1h20a1 1 0 0 1 1 1 6.0066 6.0066 0 0 1 -6 6zm-13.8735-5a4.0076 4.0076 0 0 0 3.8735 3h10a4.0076 4.0076 0 0 0 3.8735-3z"/></g></g></svg>